<svg id="Layer_1" data-name="Layer 1" xmlns="http://www.w3.org/2000/svg" viewBox="0 0 153.71 163.68"><defs><style>.cls-1{fill:#fff;}</style></defs><path class="cls-1" d="M35.57,127.6A44.67,44.67,0,0,0,53,141.79a51.33,51.33,0,0,0,21.56,4.73,54,54,0,0,0,23.87-5.28,59.82,59.82,0,0,0,18.81-14.19,65.12,65.12,0,0,0,12.32-20.68,69.38,69.38,0,0,0,4.4-24.53,71.79,71.79,0,0,0-4.4-25.41A63.34,63.34,0,0,0,117.3,36,57.1,57.1,0,0,0,98.6,22.22a56.37,56.37,0,0,0-24.09-5.06A56.31,56.31,0,0,0,49,22.77,57.94,57.94,0,0,0,29.41,38.94L15.55,27.28A64.07,64.07,0,0,1,41,6.6Q55.81,0,74.51,0a79.26,79.26,0,0,1,31.24,6.16,76.77,76.77,0,0,1,25.19,17.05,78.34,78.34,0,0,1,16.72,25.85,86.5,86.5,0,0,1,6.05,32.78A87.63,87.63,0,0,1,147.88,114a76.72,76.72,0,0,1-41.47,43.34,78.48,78.48,0,0,1-31.9,6.38A83,83,0,0,1,44,158a56.22,56.22,0,0,1-24.53-18.7Z"/><path class="cls-1" d="M18,123.65H0q0-2.16.09-14.79T.18,78.12Q.18,70.21.12,60T0,37.75H18q-.12,11.31-.18,22.71t-.06,18.37q0,9.49.12,25.9T18,123.65Zm42.89-.94L46.23,129q-11.31-14.83-18.87-23.6A149.1,149.1,0,0,1,17.93,93.8v-.12q1.63-2.4,9.51-12.29T41.52,62.3l16,6.1Q51.8,76.08,46.15,83.3t-7.06,9v.06Q52,110.17,60.88,122.71Z"/><path class="cls-1" d="M100.48,75.54H83.92v28.08q0,2.76.12,5.1a10.56,10.56,0,0,0,1,4.08,6.45,6.45,0,0,0,2.52,2.76,9.31,9.31,0,0,0,4.8,1,19.34,19.34,0,0,0,4.2-.48,17.64,17.64,0,0,0,4.08-1.44l.36,8.52a21.35,21.35,0,0,1-5.34,1.56,34.68,34.68,0,0,1-5.58.48,20.29,20.29,0,0,1-8-1.32,10.92,10.92,0,0,1-4.68-3.72,13.85,13.85,0,0,1-2.22-5.94,52.37,52.37,0,0,1-.54-7.86V75.54H62.32V67.62H74.56v-16h9.36v16h16.56Z"/></svg>