<svg id="Layer_1" data-name="Layer 1" xmlns="http://www.w3.org/2000/svg" viewBox="0 0 184.07 184.07"><defs><style>.cls-1{fill:#fff;}.cls-2,.cls-3{fill:#231f20;}.cls-3{font-size:120px;font-family:Avenir-Roman, Avenir;}</style></defs><circle class="cls-1" cx="92.04" cy="92.04" r="92.04"/><path class="cls-2" d="M54.59,137.76A44.67,44.67,0,0,0,72,152a51.33,51.33,0,0,0,21.56,4.73,54,54,0,0,0,23.87-5.28,59.82,59.82,0,0,0,18.81-14.19,65.12,65.12,0,0,0,12.32-20.68A69.38,69.38,0,0,0,152.93,92a71.79,71.79,0,0,0-4.4-25.41,63.34,63.34,0,0,0-12.21-20.46,57.1,57.1,0,0,0-18.7-13.75,56.37,56.37,0,0,0-24.09-5.06A56.31,56.31,0,0,0,68,32.93,57.94,57.94,0,0,0,48.43,49.1L34.57,37.44A64.07,64.07,0,0,1,60,16.76q14.85-6.6,33.55-6.6a79.08,79.08,0,0,1,31.24,6.16,76.77,76.77,0,0,1,25.19,17,78.34,78.34,0,0,1,16.72,25.85,86.5,86.5,0,0,1,6,32.78,87.63,87.63,0,0,1-5.83,32.12,76.72,76.72,0,0,1-41.47,43.34,78.48,78.48,0,0,1-31.9,6.38,83,83,0,0,1-30.47-5.72,56.22,56.22,0,0,1-24.53-18.7Z" transform="translate(1)"/><path class="cls-2" d="M37,138.81H19c0-1.44,0-6.38.09-14.79s.08-18.67.08-30.74q0-7.91-.06-18.16T19,52.91H37q-.12,11.31-.18,22.71T36.77,94q0,9.48.12,25.89T37,138.81Zm42.89-.94L65.25,144.2q-11.31-14.83-18.87-23.6A149.1,149.1,0,0,1,37,109v-.12q1.63-2.4,9.51-12.29T60.54,77.46l16,6.1q-5.75,7.68-11.4,14.9c-3.76,4.81-6.12,7.82-7,9v.06Q71.05,125.33,79.9,137.87Z" transform="translate(1)"/><text class="cls-3" transform="translate(80.9 133.94)">t</text></svg>